####
#
# OBJ File Generated by Meshlab
#
####
# Object plane.obj
#
# Vertices: 5
# Faces: 6
#
####
mtllib ./plane.mtl

vn 0.000000 -0.003024 -0.363118
v 0.000000 0.000000 -1.000000
vn 0.000000 -4.353432 2.393764
v 0.000000 -0.100000 0.000000
vn 0.000000 2.692313 0.840909
v 0.000000 0.300000 0.000000
vn -0.105355 -0.048371 0.109765
v -0.800000 -0.300000 0.600000
vn 0.105355 -0.048371 0.109765
v 0.800000 -0.300000 0.600000
# 5 vertices, 0 vertices normals


usemtl material_0
f 1//1 4//4 3//3
f 1//1 3//3 5//5
f 1//1 2//2 4//4
f 1//1 5//5 2//2
f 2//2 3//3 4//4
f 2//2 5//5 3//3
# 6 faces, 0 coords texture

# End of File